<svg
  viewBox="0 0 24 24"
  fill="none"
  stroke="currentColor"
  stroke-width="1"
  stroke-linecap="round"
  stroke-linejoin="round"
  aria-hidden="true"
  xmlns="http://www.w3.org/2000/svg"
>
  <path fill="currentColor" d="M15 2C15 1.44772 14.5523 1 14 1C13.4477 1 13 1.44772 13 2V10C13 10.5523 13.4477 11 14 11H22C22.5523 11 23 10.5523 23 10C23 9.44772 22.5523 9 22 9H15V2ZM2 13C1.44772 13 1 13.4477 1 14C1 14.5523 1.44772 15 2 15H9V22C9 22.5523 9.44772 23 10 23C10.5523 23 11 22.5523 11 22V14C11 13.4477 10.5523 13 10 13H2Z"></path>
</svg>
