<svg xmlns="http://www.w3.org/2000/svg" xmlns:xlink="http://www.w3.org/1999/xlink" version="1.1" id="Ebene_1" x="0px" y="0px" viewBox="0 0 399.3 101.2" xml:space="preserve" class="h-6 sm:h-8 hidden min-[430px]:block "><rect x="181.4" y="5.2" fill="currentColor" width="6.7" height="70.7"></rect><g><g><path fill="currentColor" d="M274.3,73.7c-9.8,0-17.8-10.2-17.8-22.8s8-22.8,17.8-22.8s17.8,10.2,17.8,22.8    C292.2,63.4,284.2,73.7,274.3,73.7 M292.2,30.6c-4.5-5.7-10.8-9.3-17.8-9.3c-13.5,0-24.5,13.2-24.5,29.5s11,29.5,24.5,29.5    c7,0,13.3-3.6,17.8-9.3v1.8c0,14.2-5.6,18-15.2,19.5c-12.8,1.2-16.9-5.8-17-6.1l-2.9,1.6l-3,1.5c0.2,0.4,5.2,9.7,20,9.7    c1.1,0,2.4-0.1,3.6-0.2h0.2c10-1.6,20.2-5.8,20.8-24.4l0,0V24.7H292v5.9H292.2z"></path></g><g><path fill="currentColor" d="M234.4,64.2c-2.4,2.9-7.9,8.2-13.4,8.3c-5,0.1-8.4-0.9-10.7-3.2c-2.6-2.5-3.9-6.9-3.9-13V25.2h-6.7v31.2    c0,8,2,13.9,5.9,17.7c3.5,3.4,8.3,5.1,14.8,5.1c0.2,0,0.4,0,0.7,0c5.2-0.1,9.9-2.8,13.3-5.6v4.9h6.7V25.2h-6.7L234.4,64.2    L234.4,64.2z"></path></g></g><rect x="310" y="25.2" fill="currentColor" width="6.7" height="50.1"></rect><rect x="328.5" y="5.2" fill="currentColor" width="6.7" height="70.1"></rect><g><g><path fill="currentColor" d="M370.2,73.7c-10.4,0-18.8-10.2-18.8-22.8s8.4-22.8,18.8-22.8S389,38.2,389,50.8S380.6,73.7,370.2,73.7     M370.2,21.3c-14,0-25.5,13.2-25.5,29.5s11.4,29.5,25.5,29.5c14,0,25.5-13.2,25.5-29.5S384.3,21.3,370.2,21.3"></path></g><g><path fill="currentColor" d="M316.9,12.9c0,2-1.6,3.6-3.6,3.6s-3.6-1.6-3.6-3.6s1.6-3.6,3.6-3.6S316.9,10.9,316.9,12.9"></path></g><g><path fill="currentColor" d="M85.5,47.5H74.2c-2-12.9-14-25.3-28.5-27.9c-5.3-0.9-7.9-1-13.8-1v12.8H9.6c-2.9,0-5.3,2.4-5.3,5.4    s2.4,5.4,5.3,5.4h22.3V60H9.7c-2.9,0-5.3,2.4-5.3,5.4s2.4,5.4,5.3,5.4h22.2v13c5.9,0,10-0.1,13.9-1.1C59.9,79.1,72.1,67.6,74.1,55    h11.3L85.5,47.5L85.5,47.5z"></path></g><g><path fill="currentColor" d="M148.3,73.7c-8.8,0-16.1-8.2-17.6-19V47c1.4-10.8,8.7-19,17.6-19c9.8,0,17.8,10.2,17.8,22.8    S158.1,73.7,148.3,73.7 M148.3,21.3c-6.9,0-13.1,3.4-17.6,9v-5.6H124V39v7.5V55v12.6v27.7h6.7v-24c4.5,5.5,10.7,9,17.6,9    c13.5,0,24.5-13.2,24.5-29.5S161.8,21.3,148.3,21.3"></path></g></g></svg>