<?xml version="1.0" encoding="utf-8"?><!-- Uploaded to: SVG Repo, www.svgrepo.com, Generator: SVG Repo Mixer Tools -->
<svg fill="currentColor" width="800px" height="800px" viewBox="0 0 448 512" id="Flat" xmlns="http://www.w3.org/2000/svg">
  <path fill="currentColor" d="M192 80c0-26.5-21.5-48-48-48L48 32C21.5 32 0 53.5 0 80l0 96c0 26.5 21.5 48 48 48l96 0c26.5 0 48-21.5 48-48l0-96zm0 256c0-26.5-21.5-48-48-48l-96 0c-26.5 0-48 21.5-48 48l0 96c0 26.5 21.5 48 48 48l96 0c26.5 0 48-21.5 48-48l0-96zM256 80l0 96c0 26.5 21.5 48 48 48l96 0c26.5 0 48-21.5 48-48l0-96c0-26.5-21.5-48-48-48l-96 0c-26.5 0-48 21.5-48 48zM448 336c0-26.5-21.5-48-48-48l-96 0c-26.5 0-48 21.5-48 48l0 96c0 26.5 21.5 48 48 48l96 0c26.5 0 48-21.5 48-48l0-96z"></path>
</svg>